<?xml version="1.0" encoding="UTF-8"?>
<svg xmlns="http://www.w3.org/2000/svg" xmlns:xlink="http://www.w3.org/1999/xlink" width="273pt" height="56pt" viewBox="0 0 273 53" version="1.1">
    <defs>
      <style>
        #wrap_all path {
          fill: #111;
          stroke: #111;
          stroke-width: 2px;
          animation: svg 5s ease-in both infinite;
        }
        @keyframes svg {
          0% {
            fill: transparent;
            stroke-dasharray: 2000px;
            stroke-dashoffset: 2000px;
          }
          20%{
            stroke-dashoffset: 0;
          }
          30%{
            fill: transparent;
          }
          50%{
            fill: #111;
          }
        }
      </style>
    </defs>
    <g id="wrap_all">
        <path d="M 0.316406 52.5625 L 0.316406 0.4375 L 11.492188 0.4375 C 13.324219 0.40625 15.152344 0.679688 16.898438 1.242188 C 18.53125 1.8125 20 2.785156 21.164062 4.066406 C 22.425781 5.421875 23.332031 7.074219 23.796875 8.867188 C 24.351562 11.300781 24.597656 13.800781 24.527344 16.296875 C 24.554688 18.28125 24.421875 20.261719 24.132812 22.226562 C 23.859375 23.835938 23.273438 25.375 22.40625 26.757812 C 21.429688 28.429688 20.027344 29.808594 18.339844 30.753906 C 16.253906 31.785156 13.941406 32.277344 11.613281 32.179688 L 7.773438 32.179688 L 7.773438 52.511719 Z M 7.773438 7.460938 L 7.773438 25.183594 L 11.359375 25.183594 C 12.566406 25.242188 13.773438 25.015625 14.875 24.523438 C 15.664062 24.121094 16.304688 23.480469 16.703125 22.691406 C 17.121094 21.847656 17.355469 20.929688 17.394531 19.988281 C 17.46875 18.910156 17.507812 17.710938 17.507812 16.398438 C 17.507812 15.085938 17.507812 14.019531 17.4375 12.921875 C 17.40625 11.921875 17.183594 10.9375 16.777344 10.023438 C 16.40625 9.222656 15.789062 8.5625 15.019531 8.132812 C 13.96875 7.636719 12.8125 7.410156 11.65625 7.472656 Z M 7.773438 7.460938 "/>
        <path d="M 29.648438 12.738281 C 29.628906 10.824219 30.019531 8.925781 30.796875 7.179688 C 31.46875 5.625 32.464844 4.238281 33.726562 3.109375 C 34.882812 2.101562 36.222656 1.320312 37.667969 0.804688 C 40.570312 -0.265625 43.757812 -0.265625 46.660156 0.804688 C 48.144531 1.335938 49.519531 2.132812 50.722656 3.152344 C 51.945312 4.296875 52.917969 5.679688 53.578125 7.21875 C 54.339844 8.972656 54.714844 10.867188 54.675781 12.78125 L 54.675781 40.261719 C 54.730469 42.195312 54.355469 44.121094 53.578125 45.894531 C 52.914062 47.386719 51.941406 48.722656 50.722656 49.816406 C 49.535156 50.875 48.15625 51.699219 46.660156 52.238281 C 43.757812 53.308594 40.570312 53.308594 37.667969 52.238281 C 36.1875 51.707031 34.828125 50.886719 33.675781 49.816406 C 32.4375 48.738281 31.457031 47.398438 30.796875 45.894531 C 30.023438 44.121094 29.648438 42.195312 29.699219 40.261719 Z M 37.117188 40.261719 C 36.988281 41.746094 37.539062 43.210938 38.613281 44.246094 C 40.675781 45.957031 43.664062 45.957031 45.726562 44.246094 C 46.796875 43.210938 47.347656 41.746094 47.21875 40.261719 L 47.21875 12.738281 C 47.34375 11.25 46.789062 9.78125 45.714844 8.742188 C 43.652344 7.03125 40.664062 7.03125 38.601562 8.742188 C 37.53125 9.785156 36.984375 11.25 37.109375 12.738281 Z M 37.117188 40.261719 "/>
        <path d="M 61.28125 52.5625 L 61.28125 0.4375 L 73.273438 0.4375 C 82.078125 0.4375 86.480469 5.539062 86.480469 15.738281 C 86.554688 18.417969 86.070312 21.082031 85.058594 23.566406 C 84.015625 25.8125 82.253906 27.644531 80.050781 28.773438 L 88.097656 52.5625 L 80.132812 52.5625 L 73.179688 30.308594 L 68.71875 30.308594 L 68.71875 52.5625 Z M 68.71875 7.460938 L 68.71875 23.730469 L 72.96875 23.730469 C 74.042969 23.773438 75.113281 23.585938 76.105469 23.179688 C 76.855469 22.84375 77.492188 22.296875 77.9375 21.605469 C 78.359375 20.820312 78.632812 19.964844 78.738281 19.082031 C 78.898438 17.929688 78.972656 16.769531 78.960938 15.605469 C 78.976562 14.441406 78.898438 13.28125 78.738281 12.128906 C 78.625 11.210938 78.328125 10.328125 77.863281 9.527344 C 76.941406 8.164062 75.183594 7.492188 72.601562 7.492188 Z M 68.71875 7.460938 "/>
        <path d="M 97.324219 52.5625 L 97.324219 7.460938 L 88.71875 7.460938 L 88.71875 0.4375 L 113.4375 0.4375 L 113.4375 7.460938 L 104.800781 7.460938 L 104.800781 52.5625 Z M 97.324219 52.5625 "/>
        <path d="M 116.273438 12.738281 C 116.234375 10.828125 116.609375 8.929688 117.371094 7.179688 C 118.039062 5.625 119.039062 4.238281 120.296875 3.109375 C 121.46875 2.097656 122.820312 1.316406 124.28125 0.804688 C 127.1875 -0.265625 130.378906 -0.265625 133.285156 0.804688 C 134.765625 1.339844 136.144531 2.132812 137.347656 3.152344 C 138.574219 4.292969 139.546875 5.679688 140.203125 7.21875 C 140.964844 8.972656 141.339844 10.867188 141.300781 12.78125 L 141.300781 40.261719 C 141.355469 42.195312 140.980469 44.121094 140.203125 45.894531 C 139.539062 47.390625 138.5625 48.726562 137.339844 49.816406 C 136.148438 50.875 134.769531 51.695312 133.273438 52.238281 C 130.367188 53.308594 127.175781 53.308594 124.269531 52.238281 C 122.796875 51.703125 121.449219 50.882812 120.296875 49.816406 C 119.050781 48.753906 118.050781 47.425781 117.371094 45.933594 C 116.597656 44.160156 116.222656 42.238281 116.273438 40.300781 Z M 123.734375 40.261719 C 123.601562 41.75 124.15625 43.214844 125.238281 44.246094 C 127.296875 45.96875 130.289062 45.96875 132.347656 44.246094 C 133.425781 43.210938 133.976562 41.75 133.851562 40.261719 L 133.851562 12.738281 C 133.976562 11.25 133.425781 9.78125 132.347656 8.742188 C 130.289062 7.023438 127.296875 7.023438 125.238281 8.742188 C 124.15625 9.78125 123.605469 11.25 123.734375 12.738281 Z M 123.734375 40.261719 "/>
        <path d="M 147.875 52.5625 L 147.875 0.4375 L 170.117188 0.4375 L 170.117188 7.460938 L 155.332031 7.460938 L 155.332031 23.28125 L 168.21875 23.28125 L 168.21875 30.308594 L 155.332031 30.308594 L 155.332031 52.5625 Z M 147.875 52.5625 "/>
        <path d="M 174.507812 12.738281 C 174.46875 10.828125 174.84375 8.929688 175.605469 7.179688 C 176.273438 5.625 177.273438 4.238281 178.53125 3.109375 C 179.703125 2.097656 181.054688 1.316406 182.515625 0.804688 C 185.421875 -0.265625 188.613281 -0.265625 191.519531 0.804688 C 193 1.339844 194.378906 2.132812 195.582031 3.152344 C 196.808594 4.292969 197.777344 5.679688 198.4375 7.21875 C 199.199219 8.972656 199.574219 10.867188 199.535156 12.78125 L 199.535156 40.261719 C 199.59375 42.195312 199.226562 44.117188 198.457031 45.894531 C 197.785156 47.390625 196.800781 48.730469 195.570312 49.816406 C 194.382812 50.875 193.003906 51.695312 191.507812 52.238281 C 188.601562 53.308594 185.410156 53.308594 182.503906 52.238281 C 181.03125 51.703125 179.679688 50.882812 178.53125 49.816406 C 177.285156 48.753906 176.285156 47.425781 175.605469 45.933594 C 174.828125 44.160156 174.453125 42.238281 174.507812 40.300781 Z M 181.964844 40.261719 C 181.835938 41.75 182.390625 43.214844 183.46875 44.246094 C 185.527344 45.96875 188.523438 45.96875 190.582031 44.246094 C 191.664062 43.214844 192.214844 41.75 192.085938 40.261719 L 192.085938 12.738281 C 192.214844 11.25 191.660156 9.78125 190.582031 8.742188 C 188.523438 7.023438 185.527344 7.023438 183.46875 8.742188 C 182.390625 9.78125 181.839844 11.25 181.964844 12.738281 Z M 181.964844 40.261719 "/>
        <path d="M 206.109375 52.5625 L 206.109375 0.4375 L 213.578125 0.4375 L 213.578125 45.089844 L 228.351562 45.089844 L 228.351562 52.5625 Z M 206.109375 52.5625 "/>
        <path d="M 233.402344 52.5625 L 233.402344 0.4375 L 240.859375 0.4375 L 240.859375 52.5625 Z M 233.402344 52.5625 "/>
        <path d="M 247.667969 12.738281 C 247.628906 10.828125 248.003906 8.929688 248.765625 7.179688 C 249.433594 5.625 250.433594 4.238281 251.691406 3.109375 C 252.863281 2.097656 254.214844 1.316406 255.675781 0.804688 C 258.582031 -0.265625 261.773438 -0.265625 264.679688 0.804688 C 266.160156 1.339844 267.539062 2.132812 268.742188 3.152344 C 269.96875 4.292969 270.941406 5.679688 271.597656 7.21875 C 272.359375 8.972656 272.734375 10.867188 272.695312 12.78125 L 272.695312 40.261719 C 272.753906 42.195312 272.386719 44.117188 271.617188 45.894531 C 270.945312 47.390625 269.960938 48.730469 268.730469 49.816406 C 267.542969 50.875 266.164062 51.695312 264.667969 52.238281 C 261.761719 53.308594 258.570312 53.308594 255.664062 52.238281 C 254.191406 51.703125 252.839844 50.882812 251.691406 49.816406 C 250.445312 48.753906 249.445312 47.425781 248.765625 45.933594 C 247.988281 44.160156 247.617188 42.238281 247.667969 40.300781 Z M 255.125 40.261719 C 254.996094 41.75 255.550781 43.214844 256.628906 44.246094 C 258.691406 45.96875 261.683594 45.96875 263.742188 44.246094 C 264.824219 43.214844 265.375 41.75 265.246094 40.261719 L 265.246094 12.738281 C 265.375 11.25 264.820312 9.78125 263.742188 8.742188 C 261.683594 7.023438 258.691406 7.023438 256.628906 8.742188 C 255.550781 9.78125 255 11.25 255.125 12.738281 Z M 255.125 40.261719 "/>
    </g>
</svg>
